<svg xmlns="http://www.w3.org/2000/svg" width="76" height="16" fill="none" viewBox="0 0 76 16"><path fill="#000" d="M4.84 10.42c.22 0 .42-.03.61-.1.2-.05.37-.14.51-.26.15-.11.26-.25.34-.41s.12-.34.1-.54h2.05c.01.44-.08.84-.27 1.22-.19.37-.45.7-.77.97a4.14 4.14 0 0 1-2.52.87c-.66 0-1.24-.12-1.73-.33a3.5 3.5 0 0 1-1.24-.92 4 4 0 0 1-.76-1.35A5.5 5.5 0 0 1 .91 7.9v-.24c0-.59.09-1.14.25-1.66a3.57 3.57 0 0 1 1.98-2.27c.5-.23 1.08-.34 1.73-.34.52 0 1 .08 1.44.23a2.99 2.99 0 0 1 2.14 3.05H6.41a1.42 1.42 0 0 0-.42-1.08 1.65 1.65 0 0 0-1.16-.45c-.34 0-.62.08-.85.22-.22.14-.4.33-.53.56-.13.24-.23.5-.29.8-.05.3-.07.62-.07.94v.24c0 .33.02.64.07.95.06.3.15.57.29.8.13.23.3.42.53.56s.51.21.86.21m5.57-2.72c0-.62.1-1.19.27-1.7q.27-.795.78-1.38c.34-.38.75-.68 1.24-.9.5-.22 1.06-.33 1.7-.33.63 0 1.2.11 1.7.33a3.63 3.63 0 0 1 2.02 2.27c.18.52.27 1.1.27 1.7v.17c0 .62-.09 1.2-.27 1.72-.17.52-.43.97-.77 1.36-.34.38-.75.69-1.25.9-.5.22-1.06.32-1.69.32s-1.2-.1-1.7-.32c-.5-.21-.91-.52-1.25-.9a3.9 3.9 0 0 1-.78-1.36 5.4 5.4 0 0 1-.27-1.72zm2.18.16c0 .35.03.69.1 1 .07.3.17.57.32.8.14.24.33.42.56.56.23.13.52.2.84.2s.6-.07.82-.2c.23-.14.42-.32.57-.56.14-.23.24-.5.3-.8.08-.31.11-.65.11-1V7.7c0-.35-.03-.67-.1-.98a2.7 2.7 0 0 0-.31-.81 1.64 1.64 0 0 0-.57-.56c-.22-.13-.5-.2-.83-.2-.32 0-.6.07-.83.2-.23.14-.42.32-.56.56-.15.23-.25.5-.32.8-.07.32-.1.64-.1.99zm7.5-.15c0-.64.08-1.23.22-1.76.15-.53.37-.98.66-1.36s.63-.68 1.04-.89c.4-.2.88-.3 1.4-.3a2.64 2.64 0 0 1 2.07.9V0h2.18v12H25.7l-.11-.88a2.73 2.73 0 0 1-2.19 1.04c-.52 0-.98-.11-1.4-.32a3.1 3.1 0 0 1-1.02-.9c-.29-.38-.5-.83-.66-1.35a6.2 6.2 0 0 1-.23-1.71V7.7Zm2.18.17c0 .35.02.68.08.99.06.3.16.56.3.79.13.23.3.4.52.54.22.13.48.2.78.2.38 0 .69-.09.93-.25.25-.16.45-.38.6-.67V6.06c-.15-.28-.34-.5-.59-.66a1.64 1.64 0 0 0-.92-.24 1.47 1.47 0 0 0-1.31.74c-.14.23-.24.5-.3.82-.06.3-.1.64-.1 1v.16Zm11.76 4.28c-.65 0-1.24-.11-1.77-.32-.53-.22-.99-.5-1.37-.88a3.82 3.82 0 0 1-1.19-2.89v-.31q0-.975.3-1.77c.21-.53.5-1 .86-1.38.36-.39.8-.69 1.3-.9s1.04-.32 1.63-.32c.6 0 1.15.1 1.62.3a3.37 3.37 0 0 1 1.97 2.17c.17.51.26 1.07.26 1.7v.92h-5.73v.02c.07.34.16.61.28.82a2.16 2.16 0 0 0 1.14.95c.25.1.53.14.83.14.43 0 .85-.08 1.25-.24s.72-.4.97-.72l1.09 1.17c-.28.39-.71.74-1.31 1.06q-.9.48-2.13.48m-.26-7.01a1.66 1.66 0 0 0-1.2.5 2.1 2.1 0 0 0-.39.58c-.1.22-.18.47-.23.75h3.56V6.8a1.7 1.7 0 0 0-.47-1.17 1.85 1.85 0 0 0-1.27-.48M40 0h4.73v10.23h2.42V12H40v-1.77h2.53V1.77H40zm14.44 12a5 5 0 0 1-.23-.79 2.85 2.85 0 0 1-1.56.87 3.66 3.66 0 0 1-1.94-.1c-.36-.14-.67-.31-.93-.53a2.4 2.4 0 0 1-.82-1.82c0-.47.09-.88.27-1.24s.45-.66.82-.9c.33-.21.73-.37 1.21-.48a7.3 7.3 0 0 1 1.66-.17h1.22v-.5c0-.2-.04-.38-.1-.54a1 1 0 0 0-.28-.4c-.13-.13-.3-.22-.5-.28-.18-.07-.41-.1-.67-.1-.23 0-.43.02-.6.08a1 1 0 0 0-.4.23c-.1.09-.17.2-.21.32a1.3 1.3 0 0 0-.07.41h-2.17a2.32 2.32 0 0 1 .94-1.87c.3-.25.67-.44 1.11-.58a5.16 5.16 0 0 1 2.94-.03c.44.12.82.3 1.15.55q.48.375.75.93c.19.37.28.8.28 1.3v3.62c0 .45.03.82.08 1.12.06.3.14.55.25.77V12zm-2.07-1.52a2.27 2.27 0 0 0 1.5-.57c.12-.1.2-.21.27-.32V8.13h-1.11c-.34 0-.63.04-.87.1-.24.07-.44.16-.59.27-.15.12-.26.26-.33.43a1.27 1.27 0 0 0-.03.95c.05.13.13.23.24.32.1.09.23.15.38.2.16.05.34.08.54.08m6.4 1.52V3.55h1.97l.13 1.17a3.2 3.2 0 0 1 1.6-1.19 3.5 3.5 0 0 1 2.12.05 2.34 2.34 0 0 1 1.5 1.65c.15.43.22.95.22 1.57V12h-2.17V6.83c0-.34-.04-.6-.11-.82-.08-.22-.18-.4-.32-.52a1.15 1.15 0 0 0-.51-.26 2.64 2.64 0 0 0-1.25 0 1.5 1.5 0 0 0-.46.2c-.11.08-.21.16-.3.25-.09.1-.17.2-.24.31V12zm9.39-4.29c0-.64.08-1.23.23-1.76.16-.53.4-.98.69-1.36a3.1 3.1 0 0 1 2.5-1.2 3.3 3.3 0 0 1 1.44.33 2.4 2.4 0 0 1 .75.63l.08-.8h1.98v8.18q0 .855-.3 1.53a3.14 3.14 0 0 1-2.08 1.83 5.17 5.17 0 0 1-3.31-.08c-.3-.11-.56-.25-.82-.42a2.7 2.7 0 0 1-.65-.6l.97-1.33a2.87 2.87 0 0 0 1.5.9 2.65 2.65 0 0 0 1.42-.07 1.53 1.53 0 0 0 .97-.97c.08-.23.12-.48.12-.77v-.48a3 3 0 0 1-.7.56 3.05 3.05 0 0 1-1.38.33c-.52 0-1-.11-1.42-.32a3.3 3.3 0 0 1-1.07-.9 4.1 4.1 0 0 1-.69-1.35 6 6 0 0 1-.23-1.71V7.7Zm2.18.17c0 .35.03.68.1.99.07.3.18.56.33.79.14.23.33.4.55.54.23.13.5.2.8.2.19 0 .36-.03.5-.06a1.44 1.44 0 0 0 .77-.42c.1-.11.19-.23.26-.36V5.98a1.6 1.6 0 0 0-.28-.38c-.11-.1-.23-.2-.38-.26-.12-.06-.25-.1-.4-.14-.13-.03-.29-.04-.45-.04-.31 0-.58.06-.8.2-.23.13-.41.3-.56.54-.15.23-.26.5-.33.82-.08.3-.11.64-.11 1z"/></svg>
